<svg width="168" height="55" viewBox="0 0 168 55" fill="none" xmlns="http://www.w3.org/2000/svg">
<path d="M3.30924 35.1086C2.49081 34.3796 1.58005 33.7285 0.875097 32.9024C-0.403045 31.4021 -0.282829 29.671 1.24729 28.4265C2.13881 27.7013 3.20922 27.1195 4.29021 26.7213C7.29562 25.6153 10.3482 24.6219 13.3901 23.6101C14.7231 23.1696 16.0762 22.7821 17.5044 23.1494C18.4556 23.3985 18.9835 24.0602 19.0153 25.046C19.0576 26.2933 18.5354 27.3849 17.9833 28.4361C17.4765 29.4074 16.8023 30.2951 16.2291 31.2386C13.7758 35.2711 8.88632 37.0234 4.46813 35.4375C4.11036 35.3067 3.75548 35.1673 3.39772 35.0326C3.36887 35.0576 3.33809 35.0836 3.30924 35.1086ZM15.7646 29.5729C15.8772 29.1555 16.1618 28.4361 16.2445 27.6936C16.3647 26.6655 15.8214 25.9212 14.8096 25.7269C14.0701 25.5836 13.2776 25.5095 12.5399 25.623C10.251 25.9673 8.06597 26.7146 6.0396 27.8235C5.22597 28.2659 4.48544 28.9073 3.84396 29.5786C2.79183 30.676 2.91782 32.1561 4.06035 33.1678C5.34234 34.3056 6.8715 34.7893 8.55549 34.6412C11.7715 34.3633 13.9729 32.5437 15.7646 29.5729Z" fill="#29CC7A"/>
<path d="M14.8366 0.978492C17.3361 1.81809 19.6693 2.34512 21.562 3.88005C24.2895 6.0959 25.6561 8.95611 25.3541 12.477C25.2089 14.1735 24.6415 15.7854 23.4768 17.1059C22.291 18.4562 20.7666 18.7293 19.3115 17.6973C18.4989 17.1222 17.7083 16.3913 17.1919 15.5536C15.1405 12.2337 13.1795 8.85897 11.2407 5.47269C10.8887 4.86487 10.706 4.12626 10.5858 3.42419C10.3145 1.86521 11.1128 0.86116 12.6919 0.798647C13.4892 0.767871 14.2971 0.930405 14.8366 0.978492ZM17.2063 3.18279C16.963 3.12509 16.7245 3.05296 16.4812 3.00776C14.5365 2.64711 13.394 3.70887 13.6373 5.66504C13.6835 6.04396 13.7547 6.42962 13.8874 6.78354C14.827 9.28021 16.1474 11.5605 17.9795 13.508C18.4633 14.0225 19.0759 14.4544 19.7039 14.7881C21.2013 15.5873 22.5978 15.0478 23.3325 13.4984C24.0692 11.9433 24.1144 10.3526 23.5403 8.76184C22.4603 5.75064 20.18 4.06086 17.2063 3.18279Z" fill="#29CC7A"/>
<path d="M36.9342 38.2871C36.7274 37.4013 36.3649 36.5127 35.8859 35.7423C34.6915 33.8362 33.395 31.9906 32.1313 30.1287C31.1119 28.6235 30.0819 27.1213 29.0547 25.6181C29.0144 25.6479 28.974 25.6787 28.9316 25.7076C28.7576 25.5296 28.5883 25.3479 28.4104 25.1757C26.8053 23.635 24.9616 23.6091 23.6123 24.9286C24.3355 25.5652 24.8097 26.3875 25.2097 27.2396C26.1176 26.9001 27.2255 27.1396 28.3315 28.034C30.6589 29.9229 32.215 32.3859 33.4345 35.0691C33.9067 36.1107 34.1923 37.3003 33.3537 38.2794C32.5304 39.2382 31.3494 39.0411 30.2492 38.8324C29.0365 38.6025 27.8333 38.0591 26.6831 37.2503C26.5437 37.687 26.3648 38.1101 26.1657 38.5246C26.2138 38.5564 26.26 38.5919 26.308 38.6227C28.6162 40.0451 31.2273 40.601 33.8682 40.9992C34.2202 41.0511 34.5924 41.0136 34.9502 40.9713C36.4755 40.7895 37.2824 39.7778 36.9342 38.2871Z" fill="#29CC7A"/>
<path d="M25.8676 26.6472C25.1847 25.7797 24.5875 24.842 23.8566 24.0246C23.7768 23.9361 23.6941 23.8514 23.6152 23.7659C22.9756 23.0705 22.2794 22.429 21.3994 22.0386C21.2782 21.9857 21.1676 21.9174 21.0406 21.876C20.1058 21.5577 19.2989 21.8222 18.7334 22.63C17.89 23.838 17.7813 25.2402 17.7294 26.6424C17.6178 29.8479 17.4793 33.0534 17.4678 36.2588C17.4649 37.41 17.638 38.6141 18.0035 39.7019C18.6344 41.5715 20.2174 42.2889 22.0687 41.6148C23.0911 41.2416 24.0182 40.6155 24.9857 40.1048C24.9722 40.0683 24.9607 40.0308 24.9453 39.9981C25.1953 39.7067 25.4521 39.4239 25.6993 39.1364C26.9111 37.6976 27.642 36.003 27.9016 34.2507C27.969 33.7958 28.0113 33.339 28.0142 32.8793C28.0315 30.6894 27.3169 28.4861 25.8676 26.6472ZM26.3792 35.0278C25.9311 36.656 24.9443 37.9236 23.4296 38.7257C22.0822 39.4432 20.6502 39.045 19.9895 37.6755C19.5865 36.8388 19.2432 35.9213 19.1133 35.0057C18.7786 32.7177 18.844 30.4095 19.3182 28.1437C19.4701 27.4137 19.8154 26.6972 20.2068 26.0538C20.3617 25.8038 20.5454 25.6114 20.7483 25.4633C21.2551 25.0969 21.8927 25.0584 22.5515 25.395C22.589 25.4143 22.6246 25.4393 22.6612 25.4585C23.2805 25.798 23.8114 26.2645 24.1461 26.501C25.6627 28.4072 26.5552 30.3095 26.6668 32.3494C26.6927 32.8274 26.687 33.3102 26.6216 33.8083C26.5725 34.2075 26.4937 34.6123 26.3792 35.0278Z" fill="#00506B"/>
<path d="M3.29194 17.1145C5.49046 15.6546 7.33794 14.136 9.71054 13.5839C13.1333 12.7905 16.232 13.4676 18.8258 15.8671C20.0761 17.0222 21.0003 18.459 21.3283 20.1882C21.6668 21.953 20.9465 23.3254 19.2384 23.8419C18.2873 24.1285 17.2236 24.3045 16.2474 24.1968C12.3668 23.7794 8.49875 23.2572 4.63259 22.7118C3.93726 22.6128 3.24481 22.305 2.61392 21.9694C1.21844 21.226 0.916459 19.9805 1.83684 18.6946C2.29943 18.0493 2.92263 17.5098 3.29194 17.1145ZM6.48585 16.5971C6.29254 16.75 6.08865 16.8952 5.90304 17.0597C4.42389 18.3715 4.56142 19.9266 6.25503 20.9355C6.58394 21.1317 6.93209 21.3135 7.29178 21.426C9.84037 22.2156 12.4505 22.5724 15.1126 22.3204C15.8156 22.2541 16.5331 22.0367 17.1832 21.7453C18.7335 21.0557 19.1624 19.6198 18.3921 18.0887C17.616 16.5519 16.3878 15.5392 14.7779 15.0169C11.7379 14.0225 9.00462 14.7861 6.48585 16.5971Z" fill="#00506B"/>
<path d="M21.1292 17.1395C22.6843 16.1941 24.2375 15.2449 25.7965 14.3043C27.7248 13.1435 29.6328 11.9461 31.6015 10.8555C32.3949 10.4179 33.3038 10.1015 34.1963 9.94477C35.7043 9.67645 36.6737 10.5334 36.7727 12.0683C36.7977 12.428 36.8151 12.8011 36.7448 13.1502C36.2072 15.7661 35.5119 18.3455 33.9703 20.5719C31.0399 24.8113 25.4099 26.0615 21.2263 23.4571C18.8903 22.0068 18.6518 19.6362 20.6522 17.7598C20.8349 17.5925 21.0224 17.4309 21.21 17.2664C21.1859 17.2232 21.1581 17.1809 21.1292 17.1395ZM31.1447 21.7068C32.8691 20.1882 33.9501 18.4378 34.3886 16.6471C34.656 15.5603 34.9166 14.3918 34.002 13.5186C33.0701 12.6299 31.865 12.8502 30.8004 13.2676C28.0556 14.3428 25.5118 15.7661 23.5047 17.9897C21.6553 20.0411 22.2342 22.2338 24.8761 23.0378C27.4045 23.8072 29.5665 22.9763 31.1447 21.7068Z" fill="#00506B"/>
<path d="M38.5904 25.5085C38.5904 19.3159 43.2317 14.6746 49.608 14.6746C52.4538 14.6746 54.6148 15.2372 56.5777 16.6529C56.7152 16.7442 56.7758 16.9269 56.7758 17.1703C56.7758 17.779 56.4411 18.7071 56.167 19.3621C55.7111 20.4267 55.086 21.4308 54.5686 21.4308C54.4926 21.4308 54.4311 21.4009 54.3561 21.3548C53.0164 20.4113 51.2814 19.9247 49.6686 19.9247C46.793 19.9247 44.2367 22.1905 44.2367 25.5085C44.2367 28.8121 46.793 31.0789 49.6686 31.0789C51.2814 31.0789 53.0019 30.5769 54.3561 29.6632C54.432 29.618 54.508 29.6026 54.584 29.6026C55.0399 29.6026 55.6486 30.3788 56.167 31.5511C56.4555 32.2186 56.7758 33.1774 56.7758 33.8006C56.7758 34.0613 56.7306 34.2738 56.5777 34.3652C54.6148 35.7491 52.4538 36.3588 49.608 36.3588C43.2317 36.3598 38.5904 31.7021 38.5904 25.5085Z" fill="#00506B"/>
<path d="M59.2244 31.7483V13.7465C59.2244 13.1224 60.5025 13.1224 61.7806 13.1224C63.0588 13.1224 64.3369 13.1224 64.3369 13.7465V30.6221C64.3369 31.1396 64.5803 31.5204 65.2044 31.5204C65.4631 31.5204 65.7516 31.4896 66.0709 31.3992C66.1171 31.3829 66.1623 31.3829 66.2085 31.3829C66.7566 31.3829 66.7566 32.4793 66.7566 33.5891C66.7566 34.7759 66.7566 35.9771 66.2085 36.0867C65.3266 36.2675 64.4273 36.3435 63.5762 36.3435C60.6246 36.3426 59.2244 34.2585 59.2244 31.7483Z" fill="#00506B"/>
<path d="M68.0656 32.1272C68.0656 29.2824 70.5151 27.609 73.9706 26.9396L76.1922 26.5136V25.7519C76.1922 25.0517 75.7517 24.5497 74.7919 24.5497C73.6196 24.5497 72.2664 24.8402 70.6526 25.6913C70.592 25.7211 70.5314 25.7365 70.4699 25.7365C70.0284 25.7365 69.587 24.9152 69.2225 24.0333C68.9792 23.4408 68.7513 22.8763 68.7513 22.4503C68.7513 22.1771 68.8426 21.9627 69.0706 21.8424C71.171 20.7153 72.9665 20.2133 75.0506 20.2133C78.9004 20.2133 81.2759 21.8569 81.2759 26.1481V35.5683C81.2759 36.1771 80.1026 36.1771 78.9312 36.1771C77.7444 36.1771 76.5576 36.1771 76.5576 35.5683V34.2286C75.6757 35.5077 74.4274 36.3425 72.3578 36.3425C69.9679 36.3425 68.0656 34.9894 68.0656 32.1272ZM76.1912 30.4836V29.5267L74.4111 29.8912C73.7263 29.997 73.1781 30.4538 73.1781 31.1222C73.1781 31.7021 73.6349 32.1128 74.3197 32.1128C75.568 32.1138 76.1912 31.2145 76.1912 30.4836Z" fill="#00506B"/>
<path d="M84.2717 35.1711C84.0746 35.0653 83.9986 34.8691 83.9986 34.5921C83.9986 34.1363 84.2265 33.4967 84.515 32.7975C84.8959 31.8387 85.2921 31.0616 85.8095 31.0616C85.9009 31.0616 85.9913 31.078 86.0827 31.1222C87.0867 31.6713 88.6553 32.1128 89.6738 32.1128C91.1193 32.1128 91.6069 31.8079 91.6069 31.2136C91.6069 30.5596 90.6778 30.3316 89.568 30.0576C87.482 29.5873 84.2111 28.9015 84.2111 25.2046C84.2111 21.6578 86.9809 20.2123 90.8461 20.2123C92.7619 20.2123 94.4084 20.5172 95.9135 21.3856C96.0953 21.4914 96.1722 21.6741 96.1722 21.9482C96.1722 22.3887 95.9433 23.0282 95.6702 23.713C95.3047 24.6113 94.819 25.4624 94.3161 25.4624C94.241 25.4624 94.1641 25.446 94.0881 25.4018C93.1601 24.8844 92.005 24.4266 91.0154 24.4266C89.8738 24.4266 89.3256 24.7757 89.3256 25.3412C89.3256 25.9038 90.1931 26.1173 91.3049 26.3732C93.4351 26.8463 96.7223 27.5907 96.7223 31.4578C96.7377 35.3529 93.4957 36.3406 89.5699 36.3406C87.6339 36.3425 85.7941 36.0232 84.2717 35.1711Z" fill="#00506B"/>
<path d="M98.7592 35.1711C98.5611 35.0653 98.4851 34.8691 98.4851 34.5921C98.4851 34.1363 98.713 33.4967 99.0035 32.7975C99.3824 31.8387 99.7786 31.0616 100.296 31.0616C100.387 31.0616 100.478 31.078 100.57 31.1222C101.574 31.6713 103.142 32.1128 104.161 32.1128C105.607 32.1128 106.093 31.8079 106.093 31.2136C106.093 30.5596 105.165 30.3316 104.054 30.0576C101.97 29.5873 98.6986 28.9015 98.6986 25.2046C98.6986 21.6578 101.467 20.2123 105.333 20.2123C107.251 20.2123 108.895 20.5172 110.401 21.3856C110.583 21.4914 110.66 21.6741 110.66 21.9482C110.66 22.3887 110.433 23.0282 110.159 23.713C109.794 24.6113 109.307 25.4624 108.804 25.4624C108.728 25.4624 108.653 25.446 108.578 25.4018C107.648 24.8844 106.492 24.4266 105.504 24.4266C104.361 24.4266 103.813 24.7757 103.813 25.3412C103.813 25.9038 104.681 26.1173 105.792 26.3732C107.923 26.8463 111.211 27.5907 111.211 31.4578C111.224 35.3529 107.984 36.3406 104.057 36.3406C102.122 36.3425 100.281 36.0232 98.7592 35.1711Z" fill="#00506B"/>
<path d="M113.575 34.2388C113.514 34.1782 113.485 34.1012 113.485 34.0099C113.485 33.5531 114.214 32.7481 115.067 31.9412C115.966 31.1045 116.847 30.4034 117.304 30.4034C117.395 30.4034 117.472 30.4197 117.518 30.4793C118.186 31.1651 118.963 31.6209 119.876 31.6209C121.338 31.6209 122.372 30.739 122.372 29.3233C122.372 27.8778 121.351 26.9652 119.891 26.9652H114.338C114.065 26.9652 113.836 26.7363 113.836 26.4631V16.0081C113.836 15.7648 114.018 15.5974 114.247 15.5974H125.826C126.436 15.5974 126.436 16.8448 126.436 18.1229C126.436 19.3857 126.436 20.6638 125.826 20.6638H118.752V22.2921H120.867C124.733 22.2921 127.789 24.8349 127.789 29.3233C127.789 34.3301 124.137 36.9942 120.03 36.9942C117.242 36.9932 115.418 36.1863 113.575 34.2388Z" fill="#29CC7A"/>
<path d="M138.836 36.3387V33.918H129.554C129.096 33.918 129.096 33.6141 129.096 33.2794C129.096 32.9611 129.096 32.6562 129.264 32.258L136.553 15.795C136.767 15.3228 138.121 15.3228 139.459 15.3228C140.692 15.3228 141.924 15.3228 141.924 15.8854C141.924 15.946 141.908 16.0066 141.877 16.0835L136.278 28.8516H138.836V26.6434C138.836 26.0356 140.052 26.0356 141.254 26.0356C142.457 26.0356 143.675 26.0356 143.675 26.6434V28.8516H144.71C145.318 28.8516 145.318 30.1134 145.318 31.3771C145.318 32.6552 145.318 33.918 144.71 33.918H143.675V36.3387C143.675 36.9475 142.457 36.9475 141.239 36.9475C140.038 36.9475 138.836 36.9475 138.836 36.3387Z" fill="#29CC7A"/>
<path d="M42.4772 50.6965V45.4485H45.5012V46.0085H43.1412V47.6565H45.1332V48.2245H43.1412V50.1285H45.5812V50.6965H42.4772ZM45.838 50.6965L47.11 48.6645L45.934 46.8085H46.646L47.166 47.6645C47.2246 47.7712 47.286 47.8805 47.35 47.9925C47.414 48.0992 47.4806 48.2059 47.55 48.3125H47.582C47.6406 48.2059 47.6993 48.0992 47.758 47.9925C47.8166 47.8805 47.8753 47.7712 47.934 47.6645L48.406 46.8085H49.094L47.918 48.7365L49.182 50.6965H48.47L47.902 49.7925C47.8326 49.6752 47.7633 49.5579 47.694 49.4405C47.6246 49.3232 47.5526 49.2085 47.478 49.0965H47.446C47.3766 49.2085 47.31 49.3232 47.246 49.4405C47.182 49.5525 47.118 49.6699 47.054 49.7925L46.526 50.6965H45.838ZM50.7701 50.7925C50.4448 50.7925 50.1728 50.6965 49.9541 50.5045C49.7408 50.3125 49.6341 50.0405 49.6341 49.6885C49.6341 49.2619 49.8235 48.9365 50.2021 48.7125C50.5808 48.4832 51.1861 48.3232 52.0181 48.2325C52.0181 48.1099 52.0048 47.9899 51.9781 47.8725C51.9568 47.7552 51.9168 47.6512 51.8581 47.5605C51.7995 47.4699 51.7168 47.3979 51.6101 47.3445C51.5088 47.2859 51.3781 47.2565 51.2181 47.2565C50.9941 47.2565 50.7835 47.2992 50.5861 47.3845C50.3888 47.4699 50.2128 47.5659 50.0581 47.6725L49.8021 47.2165C49.9835 47.0992 50.2048 46.9872 50.4661 46.8805C50.7275 46.7685 51.0155 46.7125 51.3301 46.7125C51.8048 46.7125 52.1488 46.8592 52.3621 47.1525C52.5755 47.4405 52.6821 47.8272 52.6821 48.3125V50.6965H52.1381L52.0821 50.2325H52.0581C51.8715 50.3872 51.6715 50.5205 51.4581 50.6325C51.2448 50.7392 51.0155 50.7925 50.7701 50.7925ZM50.9621 50.2645C51.1488 50.2645 51.3248 50.2219 51.4901 50.1365C51.6555 50.0459 51.8315 49.9152 52.0181 49.7445V48.6645C51.6928 48.7072 51.4181 48.7579 51.1941 48.8165C50.9755 48.8752 50.7968 48.9445 50.6581 49.0245C50.5248 49.1045 50.4261 49.1979 50.3621 49.3045C50.3035 49.4059 50.2741 49.5179 50.2741 49.6405C50.2741 49.8645 50.3408 50.0245 50.4741 50.1205C50.6075 50.2165 50.7701 50.2645 50.9621 50.2645ZM53.9054 50.6965V46.8085H54.4494L54.5054 47.3685H54.5294C54.7001 47.1819 54.8841 47.0272 55.0814 46.9045C55.2841 46.7765 55.5027 46.7125 55.7374 46.7125C56.0361 46.7125 56.2681 46.7792 56.4334 46.9125C56.6041 47.0405 56.7294 47.2219 56.8094 47.4565C57.0121 47.2325 57.2147 47.0539 57.4174 46.9205C57.6254 46.7819 57.8494 46.7125 58.0894 46.7125C58.4894 46.7125 58.7854 46.8405 58.9774 47.0965C59.1747 47.3525 59.2734 47.7312 59.2734 48.2325V50.6965H58.6174V48.3205C58.6174 47.9525 58.5587 47.6885 58.4414 47.5285C58.3241 47.3632 58.1427 47.2805 57.8974 47.2805C57.6041 47.2805 57.2787 47.4805 56.9214 47.8805V50.6965H56.2654V48.3205C56.2654 47.9525 56.2067 47.6885 56.0894 47.5285C55.9721 47.3632 55.7881 47.2805 55.5374 47.2805C55.2441 47.2805 54.9187 47.4805 54.5614 47.8805V50.6965H53.9054ZM60.5382 50.6965V46.8085H61.1942V50.6965H60.5382ZM60.8742 46.0085C60.7462 46.0085 60.6369 45.9685 60.5462 45.8885C60.4609 45.8085 60.4182 45.7072 60.4182 45.5845C60.4182 45.4565 60.4609 45.3552 60.5462 45.2805C60.6369 45.2005 60.7462 45.1605 60.8742 45.1605C61.0022 45.1605 61.1089 45.2005 61.1942 45.2805C61.2849 45.3552 61.3302 45.4565 61.3302 45.5845C61.3302 45.7072 61.2849 45.8085 61.1942 45.8885C61.1089 45.9685 61.0022 46.0085 60.8742 46.0085ZM62.507 50.6965V46.8085H63.051L63.107 47.3685H63.131C63.3176 47.1819 63.5123 47.0272 63.715 46.9045C63.923 46.7765 64.163 46.7125 64.435 46.7125C64.8456 46.7125 65.1443 46.8405 65.331 47.0965C65.523 47.3525 65.619 47.7312 65.619 48.2325V50.6965H64.963V48.3205C64.963 47.9525 64.9043 47.6885 64.787 47.5285C64.6696 47.3632 64.483 47.2805 64.227 47.2805C64.0243 47.2805 63.8456 47.3312 63.691 47.4325C63.5363 47.5339 63.3603 47.6832 63.163 47.8805V50.6965H62.507ZM67.778 50.7925C67.4526 50.7925 67.1806 50.6965 66.962 50.5045C66.7486 50.3125 66.642 50.0405 66.642 49.6885C66.642 49.2619 66.8313 48.9365 67.21 48.7125C67.5886 48.4832 68.194 48.3232 69.026 48.2325C69.026 48.1099 69.0126 47.9899 68.986 47.8725C68.9646 47.7552 68.9246 47.6512 68.866 47.5605C68.8073 47.4699 68.7246 47.3979 68.618 47.3445C68.5166 47.2859 68.386 47.2565 68.226 47.2565C68.002 47.2565 67.7913 47.2992 67.594 47.3845C67.3966 47.4699 67.2206 47.5659 67.066 47.6725L66.81 47.2165C66.9913 47.0992 67.2126 46.9872 67.474 46.8805C67.7353 46.7685 68.0233 46.7125 68.338 46.7125C68.8126 46.7125 69.1566 46.8592 69.37 47.1525C69.5833 47.4405 69.69 47.8272 69.69 48.3125V50.6965H69.146L69.09 50.2325H69.066C68.8793 50.3872 68.6793 50.5205 68.466 50.6325C68.2526 50.7392 68.0233 50.7925 67.778 50.7925ZM67.97 50.2645C68.1566 50.2645 68.3326 50.2219 68.498 50.1365C68.6633 50.0459 68.8393 49.9152 69.026 49.7445V48.6645C68.7006 48.7072 68.426 48.7579 68.202 48.8165C67.9833 48.8752 67.8046 48.9445 67.666 49.0245C67.5326 49.1045 67.434 49.1979 67.37 49.3045C67.3113 49.4059 67.282 49.5179 67.282 49.6405C67.282 49.8645 67.3486 50.0245 67.482 50.1205C67.6153 50.2165 67.778 50.2645 67.97 50.2645ZM72.0278 50.7925C71.8198 50.7925 71.6438 50.7605 71.4998 50.6965C71.3612 50.6325 71.2465 50.5445 71.1558 50.4325C71.0705 50.3205 71.0092 50.1845 70.9718 50.0245C70.9345 49.8645 70.9158 49.6885 70.9158 49.4965V47.3445H70.3398V46.8485L70.9478 46.8085L71.0278 45.7205H71.5798V46.8085H72.6278V47.3445H71.5798V49.5045C71.5798 49.7445 71.6225 49.9312 71.7078 50.0645C71.7985 50.1925 71.9558 50.2565 72.1798 50.2565C72.2492 50.2565 72.3238 50.2459 72.4038 50.2245C72.4838 50.2032 72.5558 50.1792 72.6198 50.1525L72.7478 50.6485C72.6412 50.6859 72.5238 50.7179 72.3958 50.7445C72.2732 50.7765 72.1505 50.7925 72.0278 50.7925ZM73.507 50.6965V46.8085H74.163V50.6965H73.507ZM73.843 46.0085C73.715 46.0085 73.6056 45.9685 73.515 45.8885C73.4296 45.8085 73.387 45.7072 73.387 45.5845C73.387 45.4565 73.4296 45.3552 73.515 45.2805C73.6056 45.2005 73.715 45.1605 73.843 45.1605C73.971 45.1605 74.0776 45.2005 74.163 45.2805C74.2536 45.3552 74.299 45.4565 74.299 45.5845C74.299 45.7072 74.2536 45.8085 74.163 45.8885C74.0776 45.9685 73.971 46.0085 73.843 46.0085ZM76.9877 50.7925C76.7477 50.7925 76.5184 50.7472 76.2997 50.6565C76.0864 50.5659 75.897 50.4352 75.7317 50.2645C75.5664 50.0885 75.433 49.8752 75.3317 49.6245C75.2357 49.3685 75.1877 49.0805 75.1877 48.7605C75.1877 48.4352 75.2357 48.1472 75.3317 47.8965C75.433 47.6405 75.5664 47.4245 75.7317 47.2485C75.897 47.0725 76.0864 46.9392 76.2997 46.8485C76.5184 46.7579 76.7477 46.7125 76.9877 46.7125C77.2277 46.7125 77.4544 46.7579 77.6677 46.8485C77.8864 46.9392 78.0784 47.0725 78.2437 47.2485C78.409 47.4245 78.5397 47.6405 78.6357 47.8965C78.737 48.1472 78.7877 48.4352 78.7877 48.7605C78.7877 49.0805 78.737 49.3685 78.6357 49.6245C78.5397 49.8752 78.409 50.0885 78.2437 50.2645C78.0784 50.4352 77.8864 50.5659 77.6677 50.6565C77.4544 50.7472 77.2277 50.7925 76.9877 50.7925ZM76.9877 50.2485C77.153 50.2485 77.305 50.2139 77.4437 50.1445C77.5824 50.0699 77.6997 49.9685 77.7957 49.8405C77.897 49.7072 77.9744 49.5499 78.0277 49.3685C78.081 49.1872 78.1077 48.9845 78.1077 48.7605C78.1077 48.5365 78.081 48.3339 78.0277 48.1525C77.9744 47.9659 77.897 47.8059 77.7957 47.6725C77.6997 47.5392 77.5824 47.4379 77.4437 47.3685C77.305 47.2939 77.153 47.2565 76.9877 47.2565C76.8224 47.2565 76.6704 47.2939 76.5317 47.3685C76.393 47.4379 76.273 47.5392 76.1717 47.6725C76.0757 47.8059 76.001 47.9659 75.9477 48.1525C75.8944 48.3339 75.8677 48.5365 75.8677 48.7605C75.8677 48.9845 75.8944 49.1872 75.9477 49.3685C76.001 49.5499 76.0757 49.7072 76.1717 49.8405C76.273 49.9685 76.393 50.0699 76.5317 50.1445C76.6704 50.2139 76.8224 50.2485 76.9877 50.2485ZM79.8116 50.6965V46.8085H80.3556L80.4116 47.3685H80.4356C80.6223 47.1819 80.817 47.0272 81.0196 46.9045C81.2276 46.7765 81.4676 46.7125 81.7396 46.7125C82.1503 46.7125 82.449 46.8405 82.6356 47.0965C82.8276 47.3525 82.9236 47.7312 82.9236 48.2325V50.6965H82.2676V48.3205C82.2676 47.9525 82.209 47.6885 82.0916 47.5285C81.9743 47.3632 81.7876 47.2805 81.5316 47.2805C81.329 47.2805 81.1503 47.3312 80.9956 47.4325C80.841 47.5339 80.665 47.6832 80.4676 47.8805V50.6965H79.8116ZM87.3082 50.7925C86.9402 50.7925 86.5989 50.7232 86.2842 50.5845C85.9695 50.4459 85.6975 50.2565 85.4682 50.0165L85.8682 49.5525C86.0549 49.7499 86.2735 49.9099 86.5242 50.0325C86.7802 50.1499 87.0442 50.2085 87.3162 50.2085C87.6629 50.2085 87.9322 50.1312 88.1242 49.9765C88.3162 49.8165 88.4122 49.6085 88.4122 49.3525C88.4122 49.2192 88.3882 49.1072 88.3402 49.0165C88.2975 48.9205 88.2362 48.8405 88.1562 48.7765C88.0815 48.7072 87.9909 48.6459 87.8842 48.5925C87.7775 48.5392 87.6629 48.4832 87.5402 48.4245L86.7882 48.0965C86.6655 48.0432 86.5402 47.9792 86.4122 47.9045C86.2842 47.8299 86.1695 47.7392 86.0682 47.6325C85.9669 47.5259 85.8842 47.4005 85.8202 47.2565C85.7562 47.1072 85.7242 46.9365 85.7242 46.7445C85.7242 46.5472 85.7642 46.3632 85.8442 46.1925C85.9295 46.0219 86.0442 45.8752 86.1882 45.7525C86.3375 45.6245 86.5109 45.5259 86.7082 45.4565C86.9109 45.3872 87.1322 45.3525 87.3722 45.3525C87.6869 45.3525 87.9775 45.4139 88.2442 45.5365C88.5109 45.6539 88.7375 45.8085 88.9242 46.0005L88.5642 46.4325C88.4042 46.2779 88.2255 46.1579 88.0282 46.0725C87.8362 45.9819 87.6175 45.9365 87.3722 45.9365C87.0789 45.9365 86.8415 46.0059 86.6602 46.1445C86.4842 46.2779 86.3962 46.4645 86.3962 46.7045C86.3962 46.8325 86.4202 46.9419 86.4682 47.0325C86.5215 47.1179 86.5909 47.1952 86.6762 47.2645C86.7615 47.3285 86.8549 47.3872 86.9562 47.4405C87.0575 47.4885 87.1615 47.5339 87.2682 47.5765L88.0122 47.8965C88.1615 47.9605 88.3029 48.0352 88.4362 48.1205C88.5695 48.2005 88.6842 48.2965 88.7802 48.4085C88.8762 48.5152 88.9509 48.6432 89.0042 48.7925C89.0629 48.9365 89.0922 49.1045 89.0922 49.2965C89.0922 49.5045 89.0495 49.6992 88.9642 49.8805C88.8842 50.0619 88.7669 50.2219 88.6122 50.3605C88.4575 50.4939 88.2709 50.6005 88.0522 50.6805C87.8335 50.7552 87.5855 50.7925 87.3082 50.7925ZM91.1976 50.7925C90.7816 50.7925 90.4776 50.6645 90.2856 50.4085C90.099 50.1525 90.0056 49.7739 90.0056 49.2725V46.8085H90.6696V49.1845C90.6696 49.5525 90.7256 49.8192 90.8376 49.9845C90.955 50.1445 91.1416 50.2245 91.3976 50.2245C91.6003 50.2245 91.779 50.1739 91.9336 50.0725C92.0883 49.9659 92.259 49.7979 92.4456 49.5685V46.8085H93.1016V50.6965H92.5576L92.5016 50.0885H92.4776C92.2963 50.3019 92.1043 50.4725 91.9016 50.6005C91.7043 50.7285 91.4696 50.7925 91.1976 50.7925ZM95.9492 50.7925C95.6932 50.7925 95.4532 50.7472 95.2292 50.6565C95.0052 50.5659 94.8105 50.4352 94.6452 50.2645C94.4852 50.0885 94.3572 49.8752 94.2612 49.6245C94.1705 49.3685 94.1252 49.0805 94.1252 48.7605C94.1252 48.4352 94.1759 48.1472 94.2772 47.8965C94.3785 47.6405 94.5145 47.4245 94.6852 47.2485C94.8559 47.0725 95.0532 46.9392 95.2772 46.8485C95.5065 46.7579 95.7465 46.7125 95.9972 46.7125C96.2532 46.7125 96.4719 46.7579 96.6532 46.8485C96.8345 46.9392 96.9945 47.0459 97.1332 47.1685L96.7972 47.6005C96.6852 47.4992 96.5652 47.4165 96.4372 47.3525C96.3145 47.2885 96.1759 47.2565 96.0212 47.2565C95.8452 47.2565 95.6825 47.2939 95.5332 47.3685C95.3839 47.4379 95.2559 47.5392 95.1492 47.6725C95.0425 47.8059 94.9572 47.9659 94.8932 48.1525C94.8345 48.3339 94.8052 48.5365 94.8052 48.7605C94.8052 48.9845 94.8345 49.1872 94.8932 49.3685C94.9519 49.5499 95.0319 49.7072 95.1332 49.8405C95.2399 49.9685 95.3679 50.0699 95.5172 50.1445C95.6665 50.2139 95.8292 50.2485 96.0052 50.2485C96.1865 50.2485 96.3519 50.2112 96.5012 50.1365C96.6559 50.0565 96.7945 49.9632 96.9172 49.8565L97.2052 50.2965C97.0292 50.4512 96.8345 50.5739 96.6212 50.6645C96.4079 50.7499 96.1839 50.7925 95.9492 50.7925ZM99.4258 50.7925C99.1698 50.7925 98.9298 50.7472 98.7058 50.6565C98.4818 50.5659 98.2871 50.4352 98.1218 50.2645C97.9618 50.0885 97.8338 49.8752 97.7378 49.6245C97.6471 49.3685 97.6018 49.0805 97.6018 48.7605C97.6018 48.4352 97.6524 48.1472 97.7538 47.8965C97.8551 47.6405 97.9911 47.4245 98.1618 47.2485C98.3324 47.0725 98.5298 46.9392 98.7538 46.8485C98.9831 46.7579 99.2231 46.7125 99.4738 46.7125C99.7298 46.7125 99.9484 46.7579 100.13 46.8485C100.311 46.9392 100.471 47.0459 100.61 47.1685L100.274 47.6005C100.162 47.4992 100.042 47.4165 99.9138 47.3525C99.7911 47.2885 99.6524 47.2565 99.4978 47.2565C99.3218 47.2565 99.1591 47.2939 99.0098 47.3685C98.8604 47.4379 98.7324 47.5392 98.6258 47.6725C98.5191 47.8059 98.4338 47.9659 98.3698 48.1525C98.3111 48.3339 98.2818 48.5365 98.2818 48.7605C98.2818 48.9845 98.3111 49.1872 98.3698 49.3685C98.4284 49.5499 98.5084 49.7072 98.6098 49.8405C98.7164 49.9685 98.8444 50.0699 98.9938 50.1445C99.1431 50.2139 99.3058 50.2485 99.4818 50.2485C99.6631 50.2485 99.8284 50.2112 99.9778 50.1365C100.132 50.0565 100.271 49.9632 100.394 49.8565L100.682 50.2965C100.506 50.4512 100.311 50.5739 100.098 50.6645C99.8844 50.7499 99.6604 50.7925 99.4258 50.7925ZM102.942 50.7925C102.681 50.7925 102.436 50.7472 102.206 50.6565C101.982 50.5605 101.785 50.4272 101.614 50.2565C101.449 50.0805 101.318 49.8672 101.222 49.6165C101.126 49.3659 101.078 49.0805 101.078 48.7605C101.078 48.4405 101.126 48.1552 101.222 47.9045C101.324 47.6485 101.454 47.4325 101.614 47.2565C101.78 47.0805 101.966 46.9472 102.174 46.8565C102.382 46.7605 102.598 46.7125 102.822 46.7125C103.068 46.7125 103.286 46.7552 103.478 46.8405C103.676 46.9259 103.838 47.0485 103.966 47.2085C104.1 47.3685 104.201 47.5605 104.27 47.7845C104.34 48.0085 104.374 48.2592 104.374 48.5365C104.374 48.6059 104.372 48.6752 104.366 48.7445C104.366 48.8085 104.361 48.8645 104.35 48.9125H101.726C101.753 49.3285 101.881 49.6592 102.11 49.9045C102.345 50.1445 102.649 50.2645 103.022 50.2645C103.209 50.2645 103.38 50.2379 103.534 50.1845C103.694 50.1259 103.846 50.0512 103.99 49.9605L104.222 50.3925C104.052 50.4992 103.862 50.5925 103.654 50.6725C103.446 50.7525 103.209 50.7925 102.942 50.7925ZM101.718 48.4405H103.798C103.798 48.0459 103.713 47.7472 103.542 47.5445C103.377 47.3365 103.142 47.2325 102.838 47.2325C102.7 47.2325 102.566 47.2592 102.438 47.3125C102.316 47.3659 102.204 47.4459 102.102 47.5525C102.001 47.6539 101.916 47.7792 101.846 47.9285C101.782 48.0779 101.74 48.2485 101.718 48.4405ZM106.351 50.7925C106.074 50.7925 105.81 50.7419 105.559 50.6405C105.308 50.5392 105.09 50.4112 104.903 50.2565L105.231 49.8165C105.402 49.9552 105.575 50.0672 105.751 50.1525C105.932 50.2379 106.14 50.2805 106.375 50.2805C106.631 50.2805 106.823 50.2219 106.951 50.1045C107.079 49.9872 107.143 49.8432 107.143 49.6725C107.143 49.5712 107.116 49.4832 107.063 49.4085C107.01 49.3339 106.94 49.2699 106.855 49.2165C106.775 49.1579 106.682 49.1072 106.575 49.0645C106.468 49.0219 106.362 48.9792 106.255 48.9365C106.116 48.8885 105.978 48.8352 105.839 48.7765C105.7 48.7125 105.575 48.6379 105.463 48.5525C105.356 48.4619 105.268 48.3579 105.199 48.2405C105.13 48.1232 105.095 47.9819 105.095 47.8165C105.095 47.6619 105.124 47.5179 105.183 47.3845C105.247 47.2459 105.335 47.1285 105.447 47.0325C105.564 46.9312 105.706 46.8539 105.871 46.8005C106.036 46.7419 106.223 46.7125 106.431 46.7125C106.676 46.7125 106.9 46.7552 107.103 46.8405C107.311 46.9259 107.49 47.0299 107.639 47.1525L107.327 47.5685C107.194 47.4672 107.055 47.3845 106.911 47.3205C106.767 47.2565 106.61 47.2245 106.439 47.2245C106.194 47.2245 106.012 47.2805 105.895 47.3925C105.783 47.5045 105.727 47.6352 105.727 47.7845C105.727 47.8752 105.751 47.9552 105.799 48.0245C105.847 48.0885 105.911 48.1472 105.991 48.2005C106.071 48.2485 106.162 48.2939 106.263 48.3365C106.37 48.3739 106.479 48.4139 106.591 48.4565C106.73 48.5099 106.868 48.5659 107.007 48.6245C107.151 48.6832 107.279 48.7579 107.391 48.8485C107.503 48.9339 107.594 49.0405 107.663 49.1685C107.738 49.2965 107.775 49.4512 107.775 49.6325C107.775 49.7925 107.743 49.9419 107.679 50.0805C107.62 50.2192 107.53 50.3419 107.407 50.4485C107.29 50.5552 107.14 50.6379 106.959 50.6965C106.783 50.7605 106.58 50.7925 106.351 50.7925ZM109.703 50.7925C109.425 50.7925 109.161 50.7419 108.911 50.6405C108.66 50.5392 108.441 50.4112 108.255 50.2565L108.583 49.8165C108.753 49.9552 108.927 50.0672 109.103 50.1525C109.284 50.2379 109.492 50.2805 109.727 50.2805C109.983 50.2805 110.175 50.2219 110.303 50.1045C110.431 49.9872 110.495 49.8432 110.495 49.6725C110.495 49.5712 110.468 49.4832 110.415 49.4085C110.361 49.3339 110.292 49.2699 110.207 49.2165C110.127 49.1579 110.033 49.1072 109.927 49.0645C109.82 49.0219 109.713 48.9792 109.607 48.9365C109.468 48.8885 109.329 48.8352 109.191 48.7765C109.052 48.7125 108.927 48.6379 108.815 48.5525C108.708 48.4619 108.62 48.3579 108.551 48.2405C108.481 48.1232 108.447 47.9819 108.447 47.8165C108.447 47.6619 108.476 47.5179 108.535 47.3845C108.599 47.2459 108.687 47.1285 108.799 47.0325C108.916 46.9312 109.057 46.8539 109.223 46.8005C109.388 46.7419 109.575 46.7125 109.783 46.7125C110.028 46.7125 110.252 46.7552 110.455 46.8405C110.663 46.9259 110.841 47.0299 110.991 47.1525L110.679 47.5685C110.545 47.4672 110.407 47.3845 110.263 47.3205C110.119 47.2565 109.961 47.2245 109.791 47.2245C109.545 47.2245 109.364 47.2805 109.247 47.3925C109.135 47.5045 109.079 47.6352 109.079 47.7845C109.079 47.8752 109.103 47.9552 109.151 48.0245C109.199 48.0885 109.263 48.1472 109.343 48.2005C109.423 48.2485 109.513 48.2939 109.615 48.3365C109.721 48.3739 109.831 48.4139 109.943 48.4565C110.081 48.5099 110.22 48.5659 110.359 48.6245C110.503 48.6832 110.631 48.7579 110.743 48.8485C110.855 48.9339 110.945 49.0405 111.015 49.1685C111.089 49.2965 111.127 49.4512 111.127 49.6325C111.127 49.7925 111.095 49.9419 111.031 50.0805C110.972 50.2192 110.881 50.3419 110.759 50.4485C110.641 50.5552 110.492 50.6379 110.311 50.6965C110.135 50.7605 109.932 50.7925 109.703 50.7925ZM115.768 50.7925C115.421 50.7925 115.101 50.7312 114.808 50.6085C114.52 50.4859 114.272 50.3099 114.064 50.0805C113.856 49.8459 113.693 49.5605 113.576 49.2245C113.458 48.8832 113.4 48.4992 113.4 48.0725C113.4 47.6512 113.458 47.2725 113.576 46.9365C113.698 46.6005 113.866 46.3152 114.08 46.0805C114.293 45.8459 114.546 45.6672 114.84 45.5445C115.138 45.4165 115.461 45.3525 115.808 45.3525C115.989 45.3525 116.154 45.3712 116.304 45.4085C116.458 45.4459 116.597 45.4965 116.72 45.5605C116.848 45.6192 116.96 45.6885 117.056 45.7685C117.157 45.8432 117.245 45.9205 117.32 46.0005L116.952 46.4325C116.818 46.2939 116.664 46.1765 116.488 46.0805C116.312 45.9845 116.09 45.9365 115.824 45.9365C115.557 45.9365 115.317 45.9872 115.104 46.0885C114.89 46.1845 114.709 46.3259 114.56 46.5125C114.41 46.6939 114.293 46.9152 114.208 47.1765C114.128 47.4379 114.088 47.7312 114.088 48.0565C114.088 48.3872 114.125 48.6859 114.2 48.9525C114.28 49.2139 114.392 49.4379 114.536 49.6245C114.685 49.8112 114.866 49.9552 115.08 50.0565C115.298 50.1579 115.549 50.2085 115.832 50.2085C116.018 50.2085 116.194 50.1819 116.36 50.1285C116.53 50.0699 116.669 49.9925 116.776 49.8965V48.5285H115.664V47.9765H117.384V50.1845C117.213 50.3605 116.989 50.5072 116.712 50.6245C116.434 50.7365 116.12 50.7925 115.768 50.7925ZM119.713 50.7925C119.297 50.7925 118.993 50.6645 118.801 50.4085C118.615 50.1525 118.521 49.7739 118.521 49.2725V46.8085H119.185V49.1845C119.185 49.5525 119.241 49.8192 119.353 49.9845C119.471 50.1445 119.657 50.2245 119.913 50.2245C120.116 50.2245 120.295 50.1739 120.449 50.0725C120.604 49.9659 120.775 49.7979 120.961 49.5685V46.8085H121.617V50.6965H121.073L121.017 50.0885H120.993C120.812 50.3019 120.62 50.4725 120.417 50.6005C120.22 50.7285 119.985 50.7925 119.713 50.7925ZM123.825 50.7925C123.499 50.7925 123.227 50.6965 123.009 50.5045C122.795 50.3125 122.689 50.0405 122.689 49.6885C122.689 49.2619 122.878 48.9365 123.257 48.7125C123.635 48.4832 124.241 48.3232 125.073 48.2325C125.073 48.1099 125.059 47.9899 125.033 47.8725C125.011 47.7552 124.971 47.6512 124.913 47.5605C124.854 47.4699 124.771 47.3979 124.665 47.3445C124.563 47.2859 124.433 47.2565 124.273 47.2565C124.049 47.2565 123.838 47.2992 123.641 47.3845C123.443 47.4699 123.267 47.5659 123.113 47.6725L122.857 47.2165C123.038 47.0992 123.259 46.9872 123.521 46.8805C123.782 46.7685 124.07 46.7125 124.385 46.7125C124.859 46.7125 125.203 46.8592 125.417 47.1525C125.63 47.4405 125.737 47.8272 125.737 48.3125V50.6965H125.193L125.137 50.2325H125.113C124.926 50.3872 124.726 50.5205 124.513 50.6325C124.299 50.7392 124.07 50.7925 123.825 50.7925ZM124.017 50.2645C124.203 50.2645 124.379 50.2219 124.545 50.1365C124.71 50.0459 124.886 49.9152 125.073 49.7445V48.6645C124.747 48.7072 124.473 48.7579 124.249 48.8165C124.03 48.8752 123.851 48.9445 123.713 49.0245C123.579 49.1045 123.481 49.1979 123.417 49.3045C123.358 49.4059 123.329 49.5179 123.329 49.6405C123.329 49.8645 123.395 50.0245 123.529 50.1205C123.662 50.2165 123.825 50.2645 124.017 50.2645ZM126.96 50.6965V46.8085H127.504L127.56 47.5125H127.584C127.717 47.2672 127.877 47.0725 128.064 46.9285C128.256 46.7845 128.464 46.7125 128.688 46.7125C128.843 46.7125 128.981 46.7392 129.104 46.7925L128.976 47.3685C128.912 47.3472 128.853 47.3312 128.8 47.3205C128.747 47.3099 128.68 47.3045 128.6 47.3045C128.435 47.3045 128.261 47.3712 128.08 47.5045C127.904 47.6379 127.749 47.8699 127.616 48.2005V50.6965H126.96ZM130.434 50.7925C130.109 50.7925 129.837 50.6965 129.618 50.5045C129.405 50.3125 129.298 50.0405 129.298 49.6885C129.298 49.2619 129.488 48.9365 129.866 48.7125C130.245 48.4832 130.85 48.3232 131.682 48.2325C131.682 48.1099 131.669 47.9899 131.642 47.8725C131.621 47.7552 131.581 47.6512 131.522 47.5605C131.464 47.4699 131.381 47.3979 131.274 47.3445C131.173 47.2859 131.042 47.2565 130.882 47.2565C130.658 47.2565 130.448 47.2992 130.25 47.3845C130.053 47.4699 129.877 47.5659 129.722 47.6725L129.466 47.2165C129.648 47.0992 129.869 46.9872 130.13 46.8805C130.392 46.7685 130.68 46.7125 130.994 46.7125C131.469 46.7125 131.813 46.8592 132.026 47.1525C132.24 47.4405 132.346 47.8272 132.346 48.3125V50.6965H131.802L131.746 50.2325H131.722C131.536 50.3872 131.336 50.5205 131.122 50.6325C130.909 50.7392 130.68 50.7925 130.434 50.7925ZM130.626 50.2645C130.813 50.2645 130.989 50.2219 131.154 50.1365C131.32 50.0459 131.496 49.9152 131.682 49.7445V48.6645C131.357 48.7072 131.082 48.7579 130.858 48.8165C130.64 48.8752 130.461 48.9445 130.322 49.0245C130.189 49.1045 130.09 49.1979 130.026 49.3045C129.968 49.4059 129.938 49.5179 129.938 49.6405C129.938 49.8645 130.005 50.0245 130.138 50.1205C130.272 50.2165 130.434 50.2645 130.626 50.2645ZM133.569 50.6965V46.8085H134.113L134.169 47.3685H134.193C134.38 47.1819 134.575 47.0272 134.777 46.9045C134.985 46.7765 135.225 46.7125 135.497 46.7125C135.908 46.7125 136.207 46.8405 136.393 47.0965C136.585 47.3525 136.681 47.7312 136.681 48.2325V50.6965H136.025V48.3205C136.025 47.9525 135.967 47.6885 135.849 47.5285C135.732 47.3632 135.545 47.2805 135.289 47.2805C135.087 47.2805 134.908 47.3312 134.753 47.4325C134.599 47.5339 134.423 47.6832 134.225 47.8805V50.6965H133.569ZM139.168 50.7925C138.96 50.7925 138.784 50.7605 138.64 50.6965C138.502 50.6325 138.387 50.5445 138.296 50.4325C138.211 50.3205 138.15 50.1845 138.112 50.0245C138.075 49.8645 138.056 49.6885 138.056 49.4965V47.3445H137.48V46.8485L138.088 46.8085L138.168 45.7205H138.72V46.8085H139.768V47.3445H138.72V49.5045C138.72 49.7445 138.763 49.9312 138.848 50.0645C138.939 50.1925 139.096 50.2565 139.32 50.2565C139.39 50.2565 139.464 50.2459 139.544 50.2245C139.624 50.2032 139.696 50.1792 139.76 50.1525L139.888 50.6485C139.782 50.6859 139.664 50.7179 139.536 50.7445C139.414 50.7765 139.291 50.7925 139.168 50.7925ZM142.114 50.7925C141.853 50.7925 141.608 50.7472 141.378 50.6565C141.154 50.5605 140.957 50.4272 140.786 50.2565C140.621 50.0805 140.49 49.8672 140.394 49.6165C140.298 49.3659 140.25 49.0805 140.25 48.7605C140.25 48.4405 140.298 48.1552 140.394 47.9045C140.496 47.6485 140.626 47.4325 140.786 47.2565C140.952 47.0805 141.138 46.9472 141.346 46.8565C141.554 46.7605 141.77 46.7125 141.994 46.7125C142.24 46.7125 142.458 46.7552 142.65 46.8405C142.848 46.9259 143.01 47.0485 143.138 47.2085C143.272 47.3685 143.373 47.5605 143.442 47.7845C143.512 48.0085 143.546 48.2592 143.546 48.5365C143.546 48.6059 143.544 48.6752 143.538 48.7445C143.538 48.8085 143.533 48.8645 143.522 48.9125H140.898C140.925 49.3285 141.053 49.6592 141.282 49.9045C141.517 50.1445 141.821 50.2645 142.194 50.2645C142.381 50.2645 142.552 50.2379 142.706 50.1845C142.866 50.1259 143.018 50.0512 143.162 49.9605L143.394 50.3925C143.224 50.4992 143.034 50.5925 142.826 50.6725C142.618 50.7525 142.381 50.7925 142.114 50.7925ZM140.89 48.4405H142.97C142.97 48.0459 142.885 47.7472 142.714 47.5445C142.549 47.3365 142.314 47.2325 142.01 47.2325C141.872 47.2325 141.738 47.2592 141.61 47.3125C141.488 47.3659 141.376 47.4459 141.274 47.5525C141.173 47.6539 141.088 47.7792 141.018 47.9285C140.954 48.0779 140.912 48.2485 140.89 48.4405ZM146.083 50.7925C145.822 50.7925 145.576 50.7472 145.347 50.6565C145.123 50.5605 144.926 50.4272 144.755 50.2565C144.59 50.0805 144.459 49.8672 144.363 49.6165C144.267 49.3659 144.219 49.0805 144.219 48.7605C144.219 48.4405 144.267 48.1552 144.363 47.9045C144.464 47.6485 144.595 47.4325 144.755 47.2565C144.92 47.0805 145.107 46.9472 145.315 46.8565C145.523 46.7605 145.739 46.7125 145.963 46.7125C146.208 46.7125 146.427 46.7552 146.619 46.8405C146.816 46.9259 146.979 47.0485 147.107 47.2085C147.24 47.3685 147.342 47.5605 147.411 47.7845C147.48 48.0085 147.515 48.2592 147.515 48.5365C147.515 48.6059 147.512 48.6752 147.507 48.7445C147.507 48.8085 147.502 48.8645 147.491 48.9125H144.867C144.894 49.3285 145.022 49.6592 145.251 49.9045C145.486 50.1445 145.79 50.2645 146.163 50.2645C146.35 50.2645 146.52 50.2379 146.675 50.1845C146.835 50.1259 146.987 50.0512 147.131 49.9605L147.363 50.3925C147.192 50.4992 147.003 50.5925 146.795 50.6725C146.587 50.7525 146.35 50.7925 146.083 50.7925ZM144.859 48.4405H146.939C146.939 48.0459 146.854 47.7472 146.683 47.5445C146.518 47.3365 146.283 47.2325 145.979 47.2325C145.84 47.2325 145.707 47.2592 145.579 47.3125C145.456 47.3659 145.344 47.4459 145.243 47.5525C145.142 47.6539 145.056 47.7792 144.987 47.9285C144.923 48.0779 144.88 48.2485 144.859 48.4405ZM149.804 50.7925C149.313 50.7925 148.921 50.6165 148.628 50.2645C148.34 49.9125 148.196 49.4112 148.196 48.7605C148.196 48.4459 148.241 48.1632 148.332 47.9125C148.428 47.6565 148.553 47.4405 148.708 47.2645C148.862 47.0885 149.041 46.9525 149.244 46.8565C149.446 46.7605 149.66 46.7125 149.884 46.7125C150.108 46.7125 150.302 46.7525 150.468 46.8325C150.633 46.9125 150.801 47.0219 150.972 47.1605L150.94 46.4965V45.0005H151.604V50.6965H151.06L151.004 50.2405H150.98C150.825 50.3899 150.646 50.5205 150.444 50.6325C150.246 50.7392 150.033 50.7925 149.804 50.7925ZM149.948 50.2405C150.129 50.2405 150.3 50.1979 150.46 50.1125C150.62 50.0219 150.78 49.8859 150.94 49.7045V47.6725C150.774 47.5232 150.614 47.4192 150.46 47.3605C150.31 47.2965 150.156 47.2645 149.996 47.2645C149.841 47.2645 149.694 47.3019 149.556 47.3765C149.422 47.4459 149.305 47.5472 149.204 47.6805C149.102 47.8085 149.022 47.9632 148.964 48.1445C148.905 48.3259 148.876 48.5285 148.876 48.7525C148.876 49.2219 148.969 49.5872 149.156 49.8485C149.342 50.1099 149.606 50.2405 149.948 50.2405Z" fill="#5E5E5E"/>
</svg>
