<svg width="321" height="275" viewBox="0 0 321 275" fill="none" xmlns="http://www.w3.org/2000/svg">
<path d="M166.578 274.974C212.417 274.974 249.576 273.649 249.576 272.015C249.576 270.381 212.417 269.057 166.578 269.057C120.74 269.057 83.5801 270.381 83.5801 272.015C83.5801 273.649 120.74 274.974 166.578 274.974Z" fill="#EDEDED"/>
<path d="M127.888 139.818C144.289 139.818 157.586 126.546 157.586 110.175C157.586 93.8045 144.289 80.5332 127.888 80.5332C111.486 80.5332 98.1895 93.8045 98.1895 110.175C98.1895 126.546 111.486 139.818 127.888 139.818Z" fill="white"/>
<path d="M92.8974 264.254C106.721 264.254 117.928 263.223 117.928 261.951C117.928 260.679 106.721 259.648 92.8974 259.648C79.0736 259.648 67.8672 260.679 67.8672 261.951C67.8672 263.223 79.0736 264.254 92.8974 264.254Z" fill="#A3A3A3"/>
<path d="M138.497 272.219C138.497 272.219 159.271 216.924 147.819 182.897C136.366 148.869 127.311 150.199 127.311 150.199C127.311 150.199 111.863 146.211 92.6864 157.908C73.5099 169.605 68.4494 173.061 57.5295 168.276C46.6095 163.491 44.4788 156.047 17.8448 156.845C17.8448 156.845 31.9608 149.135 45.8105 156.047C59.6602 162.959 68.9821 166.681 83.0981 156.047C97.2142 145.414 116.657 131.59 135.567 139.831C135.567 139.831 121.717 126.273 117.19 126.273C112.662 126.273 91.3547 124.147 84.4298 116.969C84.4298 116.969 74.5752 110.057 56.9968 127.071C39.4184 144.084 43.6798 144.084 27.9657 142.755C12.2517 141.426 0 133.717 0 133.717C0 133.717 18.3775 141.16 29.5638 137.438C40.75 133.717 50.3383 119.627 60.1929 114.842C70.0475 110.057 75.9069 103.677 89.224 110.589C89.224 110.589 83.6308 87.7267 72.9772 89.5875C62.3236 91.4484 78.0377 84.2708 78.0377 84.2708C78.0377 84.2708 75.1079 45.4584 69.5148 42.8C63.9216 40.1416 67.3841 33.2298 56.9968 31.9006C56.9968 31.9006 69.7811 30.3056 72.1782 39.0782C74.5752 47.8509 91.0883 95.1701 91.0883 95.1701C91.0883 95.1701 101.209 115.374 112.396 110.589C123.582 105.804 108.134 78.954 108.134 78.954L88.9576 70.1813C88.9576 70.1813 103.34 69.6497 112.129 77.8906C120.918 86.1316 121.451 112.715 121.451 112.715C121.451 112.715 143.557 115.906 148.884 127.868C148.884 127.868 152.347 117.235 145.688 110.855C144.023 109.26 142.276 106.485 140.59 103.22C134.145 90.7347 131.958 76.5025 133.986 62.6037C134.978 55.8023 135.589 49.1521 134.502 47.5851C132.105 44.1292 121.984 22.8621 121.185 17.2795C120.386 11.6969 121.984 0 121.984 0C121.984 0 122.25 14.3553 125.446 18.8745C128.642 23.3938 137.698 45.7242 137.698 45.7242C137.698 45.7242 137.698 73.9031 145.155 87.7267C152.613 101.55 166.995 116.969 166.196 127.071V132.919C166.196 132.919 182.177 117.766 181.111 112.715C180.046 107.665 178.714 95.7018 168.593 88.5242C158.472 81.3465 151.814 69.9155 159.005 53.4335C166.196 36.9515 166.196 34.0273 166.196 34.0273L161.402 54.4969C161.402 54.4969 158.739 72.8397 166.196 79.2198C173.654 85.6 183.508 97.2968 183.508 97.2968L181.378 59.0161L188.303 74.1689C188.303 74.1689 203.218 55.0285 220.796 48.6484C238.374 42.2683 249.294 19.9379 249.294 19.9379L264.209 8.24097L251.958 22.8621C251.958 22.8621 248.229 40.1416 227.188 52.3702C206.147 64.5987 192.564 82.6757 191.765 93.841C190.966 105.006 190.167 114.842 190.167 114.842C190.167 114.842 229.585 113.513 238.374 96.2335C247.164 78.954 247.963 44.6608 256.486 39.0782C265.008 33.4956 280.989 26.5838 280.989 26.5838L263.144 41.2049C263.144 41.2049 259.415 53.1677 260.214 61.6745C261.013 70.1813 254.355 78.1565 254.355 78.1565L249.294 93.0434L243.701 105.804C243.701 105.804 266.607 106.335 278.592 119.893C290.577 133.451 320.407 137.438 320.407 137.438L303.628 141.958C303.628 141.958 287.647 136.641 272.466 126.805C257.285 116.969 258.883 108.196 239.973 118.032C221.062 127.868 195.227 136.109 195.227 136.109C195.227 136.109 210.142 129.197 237.043 145.945C263.943 162.693 223.726 143.021 211.74 149.401C199.755 155.781 194.162 147.806 189.368 163.756C184.574 179.707 175.785 223.304 185.905 247.761L196.026 272.219H138.497Z" fill="#D7D7D7"/>
<path opacity="0.1" d="M238.778 96.2336C231.637 110.272 204.28 113.783 194.269 114.606C193.988 118.209 193.803 120.488 193.803 120.488C193.803 120.488 233.221 119.159 242.01 101.88C250.799 84.6001 251.599 50.307 260.121 44.7243C261.025 44.1323 262.014 43.5252 263.057 42.9131C263.35 41.8401 263.548 41.2051 263.548 41.2051L281.392 26.584C281.392 26.584 265.412 33.4958 256.889 39.0784C248.366 44.661 247.567 78.9541 238.778 96.2336Z" fill="black"/>
<path opacity="0.1" d="M192.849 69.3762C192.791 75.9213 191.939 79.8141 191.939 79.8141C191.939 79.8141 206.848 60.6819 224.422 54.2978C225.461 53.6419 226.514 52.9962 227.593 52.3694C248.634 40.1408 252.362 22.8613 252.362 22.8613L264.614 8.24023L249.699 19.9371C249.699 19.9371 238.779 42.2676 221.201 48.6477C209.218 52.9966 198.476 63.2729 192.849 69.3762Z" fill="black"/>
<path opacity="0.1" d="M169.832 132.717V138.565C169.832 138.565 185.813 123.412 184.747 118.361C183.932 114.499 182.957 106.595 178.019 99.8789C180.245 104.954 180.922 109.905 181.515 112.715C182.279 116.337 174.278 125.153 169.689 129.852C169.85 130.798 169.898 131.759 169.832 132.717Z" fill="black"/>
<path opacity="0.1" d="M148.396 92.582C148.523 92.8515 148.654 93.1166 148.792 93.373C152.876 100.944 159.034 108.991 163.641 116.383C159.917 109.063 153.437 100.692 148.396 92.582Z" fill="black"/>
<path opacity="0.1" d="M161.381 81.2652C159.233 76.0126 158.879 69.7625 161.347 62.4386C161.316 59.7843 161.469 57.1311 161.806 54.4981L166 36.5918C165.227 39.1741 163.457 44.1557 159.409 53.4347C154.284 65.1817 156.196 74.3609 161.381 81.2652Z" fill="black"/>
<path opacity="0.1" d="M278.996 119.894C270.684 110.491 257.123 107.354 249.589 106.314L247.338 111.45C247.338 111.45 270.243 111.982 282.228 125.54C288.875 133.058 301.007 137.632 310.499 140.216L320.811 137.439C320.811 137.439 290.981 133.451 278.996 119.894Z" fill="black"/>
<path opacity="0.1" d="M116.032 116.234C127.218 111.449 111.771 84.5996 111.771 84.5996L111.348 84.4062C115.199 92.5165 120.785 107.173 112.8 110.588C105.328 113.785 98.3324 105.833 94.5098 100.199C94.6486 100.597 94.7248 100.816 94.7248 100.816C94.7248 100.816 104.846 121.019 116.032 116.234Z" fill="black"/>
<path opacity="0.1" d="M152.521 133.514C152.521 133.514 155.892 123.144 149.559 116.741C151.112 122.257 149.289 127.868 149.289 127.868C145.168 118.614 131.009 114.61 124.807 113.271C125.047 116.352 125.088 118.361 125.088 118.361C125.088 118.361 147.194 121.551 152.521 133.514Z" fill="black"/>
<path opacity="0.1" d="M166 36.5906C166.6 34.5862 166.6 34.0273 166.6 34.0273L166 36.5906Z" fill="black"/>
<path opacity="0.1" d="M33.0388 143.135C33.0925 143.118 33.147 143.102 33.2004 143.084C44.3867 139.363 53.9749 125.273 63.8296 120.488C73.6842 115.703 79.5436 109.323 92.8606 116.235C92.8606 116.235 90.5308 106.716 86.0161 100.463C87.5115 103.728 88.72 107.116 89.6282 110.589C76.3112 103.677 70.4517 110.057 60.5972 114.842C50.7426 119.627 41.1543 133.717 29.968 137.439C18.7818 141.16 0.404297 133.717 0.404297 133.717C0.404297 133.717 12.6559 141.426 28.37 142.755C30.1676 142.907 31.7014 143.042 33.0388 143.135Z" fill="black"/>
<path opacity="0.1" d="M144.078 272.22C148.959 257.288 160.695 215.998 151.455 188.544C147.464 176.688 143.766 169.128 140.639 164.305C142.977 168.87 145.534 174.91 148.222 182.898C159.675 216.926 138.9 272.22 138.9 272.22H144.078Z" fill="black"/>
<path opacity="0.1" d="M40.0649 158.984C43.3302 159.314 46.5086 160.233 49.4461 161.694C60.3842 167.152 68.4997 170.614 78.3815 166.594C80.6326 165.407 83.1505 163.938 86.0543 162.189C86.2807 162.024 86.5049 161.866 86.7338 161.694C100.85 151.06 120.293 137.237 139.203 145.478C139.203 145.478 135.381 141.737 131.097 138.186C113.764 133.942 96.4068 146.326 83.5014 156.048C69.3854 166.681 60.0635 162.96 46.2138 156.048C32.364 149.136 18.248 156.845 18.248 156.845C28.5388 156.537 35.1698 157.46 40.0649 158.984Z" fill="black"/>
<path opacity="0.1" d="M67.0996 40.2188C67.4034 40.7294 67.7715 41.1991 68.1949 41.6164C67.8839 41.1107 67.5165 40.6418 67.0996 40.2188Z" fill="black"/>
<path opacity="0.1" d="M115.765 83.538C116.177 83.9266 116.563 84.3417 116.92 84.7806C115.753 81.9812 114.312 79.5605 112.533 77.8921C103.744 69.651 89.3613 70.1827 89.3613 70.1827L107.398 78.4341C110.489 79.585 113.329 81.3177 115.765 83.538Z" fill="black"/>
<path opacity="0.1" d="M134.906 47.5851C135.993 49.1521 135.382 55.8023 134.39 62.6037C132.362 76.5025 134.549 90.7347 140.994 103.22C141.843 104.896 142.79 106.519 143.832 108.083C137.695 95.7869 135.637 81.859 137.622 68.2497C138.615 61.4483 139.225 54.7981 138.138 53.231C135.741 49.7752 125.62 28.5081 124.821 22.9255C124.582 20.7597 124.526 18.5775 124.654 16.4024C122.586 10.5433 122.388 0 122.388 0C122.388 0 120.79 11.6969 121.589 17.2795C122.388 22.8621 132.509 44.1292 134.906 47.5851Z" fill="black"/>
<path opacity="0.1" d="M159.894 10.8342C159.787 10.3088 159.625 9.79611 159.41 9.30469C159.41 9.30469 159.615 9.87842 159.894 10.8342Z" fill="black"/>
<path opacity="0.1" d="M65.8197 37.6072C68.167 37.894 70.8671 38.6128 72.9267 40.28C72.7923 39.8264 72.6751 39.4198 72.5818 39.0782C70.1847 30.3055 57.4004 31.9005 57.4004 31.9005C63.1778 32.6398 64.6701 35.1063 65.8197 37.6072Z" fill="black"/>
<path d="M132.019 260.859C133.918 267.866 140.422 272.205 140.422 272.205C140.422 272.205 143.848 265.185 141.949 258.178C140.05 251.171 133.545 246.832 133.545 246.832C133.545 246.832 130.12 253.853 132.019 260.859Z" fill="#A3A3A3"/>
<path d="M134.808 259.354C140.019 264.417 140.655 272.2 140.655 272.2C140.655 272.2 132.843 271.774 127.632 266.711C122.422 261.648 121.785 253.865 121.785 253.865C121.785 253.865 129.597 254.291 134.808 259.354Z" fill="#29CC7A"/>
<path d="M60.1961 23.5859C66.3477 27.4569 68.5914 34.9378 68.5914 34.9378C68.5914 34.9378 60.8614 36.1425 54.7098 32.2714C48.5582 28.4004 46.3145 20.9195 46.3145 20.9195C46.3145 20.9195 54.0445 19.7148 60.1961 23.5859Z" fill="#29CC7A"/>
<path d="M46.4597 111.906C52.6113 115.777 54.8551 123.258 54.8551 123.258C54.8551 123.258 47.1251 124.463 40.9735 120.592C34.8219 116.721 32.5781 109.24 32.5781 109.24C32.5781 109.24 40.3081 108.035 46.4597 111.906Z" fill="#29CC7A"/>
<path d="M230.039 41.9698C227.859 48.8943 221.185 52.9684 221.185 52.9684C221.185 52.9684 218.045 45.8157 220.226 38.8912C222.406 31.9667 229.081 27.8926 229.081 27.8926C229.081 27.8926 232.22 35.0453 230.039 41.9698Z" fill="#29CC7A"/>
<path d="M293.29 119.036C289.34 125.131 281.82 127.283 281.82 127.283C281.82 127.283 280.703 119.554 284.652 113.46C288.602 107.365 296.123 105.213 296.123 105.213C296.123 105.213 297.24 112.942 293.29 119.036Z" fill="#29CC7A"/>
</svg>
