<svg width="24" height="24" viewBox="0 0 24 24" fill="none" xmlns="http://www.w3.org/2000/svg">
<path d="M12 24C18.6274 24 24 18.6274 24 12C24 5.37258 18.6274 0 12 0C5.37258 0 0 5.37258 0 12C0 18.6274 5.37258 24 12 24Z" fill="#F0F0F0"/>
<path d="M2.74283 4.36369H21.257C20.5731 3.53564 19.78 2.80134 18.9002 2.18188H5.09956C4.21977 2.80125 3.42669 3.53559 2.74283 4.36369Z" fill="#F0F0F0"/>
<path d="M0 12C0 12.3678 0.0174844 12.7314 0.049875 13.0909H23.9501C23.9825 12.7314 24 12.3678 24 12C24 11.6321 23.9825 11.2685 23.9501 10.9091H0.049875C0.0174844 11.2685 0 11.6321 0 12Z" fill="#F0F0F0"/>
<path d="M1.30844 17.4545H22.6913C23.0447 16.7633 23.3328 16.0334 23.548 15.2728H0.451752C0.666861 16.0334 0.955142 16.7634 1.30844 17.4545Z" fill="#F0F0F0"/>
<path d="M5.09956 21.8182H18.9002C19.78 21.1987 20.5731 20.4644 21.2569 19.6364H2.74283C3.42669 20.4643 4.21977 21.1987 5.09956 21.8182Z" fill="#F0F0F0"/>
<path d="M0.45166 8.7273H23.548C23.3328 7.96661 23.0446 7.23667 22.6913 6.5455H1.30839C0.955098 7.23667 0.666816 7.96661 0.45166 8.7273Z" fill="#F0F0F0"/>
<path d="M5.73907 2.1818H18.9003C16.9484 0.807516 14.5685 0 11.9999 0C10.4347 0 7.69095 0.807516 5.73907 2.1818Z" fill="#D80027"/>
<path d="M11.4781 6.54551H22.6913C22.2923 5.7649 21.8103 5.0337 21.2569 4.36371H11.4781V6.54551Z" fill="#D80027"/>
<path d="M11.4781 10.9092H23.95C23.8825 10.16 23.7468 9.43043 23.548 8.72736H11.4781V10.9092Z" fill="#D80027"/>
<path d="M0.451896 15.2728H23.5481C23.747 14.5698 23.8826 13.8402 23.9501 13.091H0.0498962C0.117396 13.8402 0.253052 14.5698 0.451896 15.2728Z" fill="#D80027"/>
<path d="M2.74291 19.6363H21.257C21.8104 18.9662 22.2924 18.2351 22.6914 17.4545H1.30853C1.70758 18.2351 2.18955 18.9663 2.74291 19.6363Z" fill="#D80027"/>
<path d="M12 24C14.5686 24 16.9485 23.1925 18.9003 21.8182H5.09967C7.05155 23.1925 9.43139 24 12 24Z" fill="#D80027"/>
<path d="M0.451849 8.72728C0.253006 9.43041 0.117396 10.1599 0.0498962 10.9091H12V0C6.50721 0 1.87647 3.69056 0.451849 8.72728Z" fill="#0052B4"/>
<path d="M7.14323 3.13043L7.92018 5.52176H10.4348L8.40056 6.99982L9.17747 9.39129L7.14323 7.91332L5.1089 9.39129L5.886 6.99982L3.85172 5.52176H6.36623L7.14323 3.13043Z" fill="#F0F0F0"/>
</svg>
