<svg width="24" height="24" viewBox="0 0 24 24" fill="none" xmlns="http://www.w3.org/2000/svg">
<g clip-path="url(#clip0)">
<path d="M23.2536 16.1739C23.736 14.8739 24 13.4679 24 12C24 10.5322 23.736 9.12613 23.2536 7.82614L12 6.78265L0.746391 7.82614C0.264 9.12613 0 10.5322 0 12C0 13.4679 0.264 14.8739 0.746391 16.1739L12 17.2174L23.2536 16.1739Z" fill="#F0F0F0"/>
<path d="M11.9999 24C17.1594 24 21.558 20.7435 23.2534 16.1739H0.746216C2.44178 20.7435 6.84025 24 11.9999 24Z" fill="#338AF3"/>
<path d="M11.9999 0C6.84025 0 2.44178 3.2565 0.746216 7.82611H23.2535C21.558 3.2565 17.1594 0 11.9999 0Z" fill="#6DA544"/>
</g>
<defs>
<clipPath id="clip0">
<rect width="24" height="24" fill="white"/>
</clipPath>
</defs>
</svg>
